<svg width="250" height="74" viewBox="0 0 250 74" fill="none" xmlns="http://www.w3.org/2000/svg">
<path d="M132.614 60.6982C132.386 60.8409 132.21 61.0014 132.105 61.1619C135.158 60.9122 137.825 57.7378 139.298 55.5264C141.298 52.5481 143.088 50.9074 145.334 50.9074C145.632 50.9074 145.93 50.9431 146.228 51.0144C147.404 51.2641 149.246 48.3393 149.737 47.5011C150.018 47.0553 150.404 46.9126 150.808 47.0196C150.895 47.0553 150.983 47.0553 151.071 47.0553C152.387 47.0553 152.948 44.3089 153.001 43.328C152.773 43.4885 152.544 43.9165 152.316 44.5942C152.176 45.0044 151.913 45.1292 151.544 45.0579C150.79 44.8974 150.158 45.2897 149.597 46.1457C148.737 47.412 148.264 48.0361 148.264 48.0361C147.843 47.8578 147.386 47.7686 146.895 47.7686C143.562 47.7686 141.369 50.9074 139.544 53.3328C137.614 55.9009 135.702 58.6473 132.614 60.6982Z" fill="#043E7D"/>
<path d="M149.79 39.0657C149.211 39.7969 148.72 40.4389 148.053 41.3128C147.86 40.6529 146.86 40.2249 146.281 40.0109C145.649 40.8134 145.105 41.5268 144.333 42.5433C144.965 42.7038 145.667 43.1318 146.053 43.5242C146.79 43.5242 147.965 42.4541 148.071 41.6694C148.632 41.8656 149.211 42.2401 149.562 42.579C150.334 42.579 151.422 41.4198 151.422 40.5994C151.422 39.8326 150.579 39.3689 149.79 39.0657ZM147.895 35.7308C147.246 36.5333 146.755 37.1753 145.983 38.1918C146.597 38.3523 147.228 38.7625 147.667 39.137C148.474 38.6912 149.404 37.6747 149.404 36.9078C149.404 36.4441 148.93 36.1409 147.895 35.7308Z" fill="#043E7D"/>
<path d="M133.087 51.7277C135.123 51.7277 137.298 47.9826 137.298 46.0566C137.298 44.8974 136.386 43.97 134.351 43.97C134.701 42.686 146.369 34.8569 147.562 34.0187C149.527 32.6633 151.878 31.0405 152.176 28.4545C149.053 31.6825 143.772 34.8926 140 37.532C137.544 39.244 132.965 42.4006 132.965 45.6999C134.193 45.6999 136.316 45.9852 136.316 47.6081C135.351 49.1062 133.666 50.087 131.894 50.087C131.491 50.3367 131.386 50.6755 131.614 51.0679C131.701 51.0322 131.772 51.0501 131.842 51.1214C132.228 51.5851 132.666 51.7277 133.087 51.7277Z" fill="#043E7D"/>
<path d="M131.614 51.0679C131.719 50.8004 131.824 50.4437 131.895 50.087C131.947 49.8909 132 49.6412 132.035 49.3202C132 49.3202 132 49.3202 131.965 49.3558C131.842 49.4807 131.719 49.5698 131.579 49.6769C128.807 51.6564 122.508 52.5303 117.876 52.5303C116.122 52.5303 110.981 52.4768 111.069 50.0157C111.087 49.7482 111.034 49.6234 110.911 49.5877C110.508 51.4781 109.911 54.2245 112.139 55.0627C113.174 55.455 114.718 55.6334 116.455 55.6334C121.105 55.6334 127.228 54.4385 129.912 52.8869C130.666 52.4589 131.281 51.8883 131.614 51.0679Z" fill="#043E7D"/>
<path d="M123.034 43.0783C122.455 43.7917 121.947 44.4515 121.28 45.3075C121.087 44.6477 120.087 44.2375 119.526 44.0057C118.876 44.826 118.333 45.5216 117.561 46.5381C118.192 46.6986 118.894 47.1444 119.297 47.5368C120.034 47.5368 121.192 46.4489 121.315 45.6821C121.877 45.8782 122.455 46.2527 122.789 46.5916C123.578 46.5916 124.649 45.4146 124.649 44.612C124.649 43.8273 123.824 43.3815 123.034 43.0783Z" fill="#043E7D"/>
<path d="M107.788 42.0975C107.543 42.5611 107.227 43.114 106.893 43.7738C106.367 44.8795 106.104 45.8961 106.104 47.2336C106.121 49.231 106.104 53.9927 105.279 55.7225C106.648 54.9735 107.279 51.6386 107.402 50.2119C107.613 47.9113 107.507 44.1484 108.244 42.0975C108.437 41.5624 108.455 41.2236 108.315 41.0988C108.139 41.4198 107.964 41.7586 107.788 42.0975Z" fill="#043E7D"/>
<path d="M103.454 51.7277C103.753 50.729 104.016 49.5698 104.279 48.3215C104.314 48.1075 104.367 47.8935 104.49 47.6973C104.156 47.6973 103.998 48.2858 103.928 48.5711C103.805 49.017 103.683 49.4807 103.525 49.9087C102.647 52.4946 100.893 54.3315 98.6297 55.7939C98.3841 55.9544 98.0156 56.204 98.0156 56.4894C98.6121 56.311 99.7876 55.776 100.332 55.776C102.226 55.776 102.981 53.2615 103.454 51.7277Z" fill="#043E7D"/>
<path d="M100.946 40.1179C100.367 40.8313 99.8578 41.4911 99.1911 42.3471C98.9981 41.6873 97.9981 41.2771 97.4367 41.0453C96.7875 41.8656 96.2436 42.5611 95.4717 43.5777C96.1033 43.7382 96.8051 44.184 97.2086 44.5764C97.9455 44.5764 99.1034 43.4885 99.2262 42.7216C99.7877 42.9178 100.367 43.2923 100.7 43.6312C101.489 43.6312 102.56 42.4541 102.56 41.6516C102.56 40.8669 101.735 40.4211 100.946 40.1179Z" fill="#043E7D"/>
<path d="M95.9282 53.6716C96.1913 53.2793 96.6124 52.7443 97.2791 52.7264C97.4896 52.7264 97.6124 52.8156 97.8054 52.8156C99.4195 52.8156 100.192 49.9444 100.192 48.7317C99.6827 48.7317 99.7353 50.4615 98.8757 50.4615C98.5423 50.4615 98.3318 50.3724 98.0335 50.3724C97.1563 50.3724 96.6299 51.4067 96.0685 51.9061C95.5948 52.3341 94.893 52.6016 94.1912 52.6016C92.3315 52.6194 91.735 50.8895 91.735 49.2488C91.0683 49.017 90.6648 49.6768 90.5244 51.1927C90.5244 54.4563 91.735 55.7225 93.1386 55.7225C94.4193 55.7225 95.279 54.6525 95.9282 53.6716Z" fill="#043E7D"/>
<path d="M93.2435 57.7556C92.6118 58.5581 92.1206 59.2001 91.3486 60.2167C92.2083 60.4307 93.1206 61.1619 93.454 61.5899C94.033 61.1975 94.9102 60.1988 94.9102 59.4141C94.9102 58.6116 94.1207 58.0944 93.2435 57.7556Z" fill="#043E7D"/>
<path d="M90.5244 51.1927C91.2262 51.0501 91.6297 50.4259 91.735 49.2488C91.735 46.7343 92.1385 43.8808 92.4368 41.3306C92.5245 40.7421 92.4543 40.4211 92.2964 40.3497C91.9806 41.6159 91.6999 42.3828 91.2964 43.3458C91.1911 43.5777 91.1385 43.8987 91.0858 44.291C90.8227 46.5738 90.5244 48.8743 90.5244 51.1927Z" fill="#043E7D"/>
<path d="M86.4361 53.6181C87.5765 52.4233 88.7696 50.4794 88.7696 48.7495C88.7696 48.0718 88.559 47.4298 87.752 47.4298C86.4361 47.4298 85.0326 49.3023 84.2957 50.3189C84.6641 49.2488 84.8571 48.0361 84.9273 47.3228C85.1027 45.2719 85.015 42.2936 85.6817 40.4924C85.8396 40.0287 85.8571 39.7077 85.7519 39.6007C85.3133 40.3676 84.8746 41.1879 84.4887 41.9726C83.9974 42.9535 83.7693 43.863 83.7693 45.04C83.7693 46.6094 84.0501 50.4437 83.3307 51.6742C83.1377 51.9953 82.9097 52.3163 82.7167 52.6373C80.9447 52.2449 80.7868 50.6756 80.7868 49.2488L79.5762 51.1927C79.5762 53.1723 79.9095 55.7225 82.2079 55.7225C83.9272 55.7225 85.3308 54.7773 86.4361 53.6181ZM83.1026 52.6908C84.4536 50.6577 85.401 49.4272 86.5589 49.4272C87.1905 49.4272 87.6292 49.7304 87.8923 50.1762C86.9975 51.9774 84.822 52.994 83.1026 52.6908Z" fill="#043E7D"/>
<path d="M79.5762 51.1927C80.278 51.0501 80.6815 50.4259 80.7868 49.2488C80.7868 46.7343 81.1903 43.8808 81.4885 41.3306C81.5763 40.7421 81.5061 40.4211 81.3482 40.3497C81.0324 41.6159 80.7517 42.3828 80.3481 43.3458C80.2429 43.5777 80.1902 43.8987 80.1376 44.291C79.8744 46.5738 79.5762 48.8743 79.5762 51.1927Z" fill="#043E7D"/>
<path d="M77.4532 51.2641C77.9796 50.4437 78.4006 49.017 78.4884 48.0183C78.3831 48.0361 78.2778 48.1788 78.1726 48.482C77.6638 49.873 75.4005 50.7469 74.0496 51.1749C71.0494 52.1023 66.8036 52.6194 63.3474 52.6194C62.2596 52.6194 61.2595 52.5659 60.3823 52.4589C59.084 52.2984 56.5225 51.8347 56.5927 50.087C56.6102 49.8195 56.5576 49.6947 56.4172 49.659C56.2418 50.4794 56.0312 51.4602 56.0312 52.3698C56.0312 52.7621 56.0839 53.1545 56.1716 53.4933C56.7857 55.7582 60.1893 55.7225 62.0491 55.7225C65.6457 55.7047 75.3128 54.6168 77.4532 51.2641Z" fill="#043E7D"/>
<path d="M68.9969 42.6681C68.4179 43.3815 67.9091 44.0413 67.2424 44.8974C67.0494 44.2375 66.0494 43.8273 65.4879 43.5955C64.8388 44.4159 64.2949 45.1114 63.5229 46.1279C64.1546 46.2884 64.8563 46.7343 65.2599 47.1266C65.9967 47.1266 67.1547 46.0387 67.2775 45.2719C67.8389 45.4681 68.4179 45.8426 68.7512 46.1814C69.5408 46.1814 70.611 45.0044 70.611 44.2018C70.611 43.4172 69.7864 42.9713 68.9969 42.6681Z" fill="#043E7D"/>
<path d="M52.4525 51.8704C52.7508 50.8717 53.0139 49.7125 53.2771 48.4642C53.3122 48.2501 53.3648 48.0361 53.4876 47.84C53.1543 47.84 52.9964 48.4285 52.9262 48.7138C52.8034 49.1597 52.6806 49.6234 52.5227 50.0514C51.6455 52.6373 49.891 54.4742 47.6277 55.9365C47.3821 56.097 47.0137 56.3467 47.0137 56.6321C47.6102 56.4537 48.7857 55.9187 49.3296 55.9187C51.2244 55.9187 51.9788 53.4041 52.4525 51.8704Z" fill="#043E7D"/>
<path d="M53.4349 40.6707C52.8033 41.4733 52.312 42.1153 51.54 43.1318C52.3997 43.3458 53.312 44.077 53.6454 44.505C54.2244 44.1127 55.1016 43.114 55.1016 42.3293C55.1016 41.5268 54.3121 41.0096 53.4349 40.6707Z" fill="#043E7D"/>
<path d="M48.3295 49.7125C49.4348 48.7495 49.9436 47.4655 49.8735 46.0031C49.7506 46.0209 49.6629 46.1814 49.5752 46.4668C49.3296 47.3763 48.6453 47.7151 47.8909 48.1253C46.4522 48.8743 45.7856 49.8017 45.2241 51.0322C44.7855 51.9953 44.3644 52.5124 43.7328 53.0296C42.7328 53.8678 41.4345 54.5812 40.2415 55.2767C39.9256 55.4729 39.8555 55.6512 39.8555 55.7225C40.645 55.5442 41.8029 55.3837 42.5924 55.5977C42.996 55.6869 43.5048 55.5442 43.9609 55.027C44.6452 54.2602 45.2241 53.1366 45.7505 51.6742C45.8733 51.3176 46.1189 50.9431 46.5049 50.7826C47.154 50.515 47.8032 50.1762 48.3295 49.7125Z" fill="#043E7D"/>
<path d="M48.5398 57.5416C47.9609 58.2549 47.4521 58.9148 46.7854 59.7708C46.5924 59.111 45.5923 58.7008 45.0309 58.4689C44.3818 59.2893 43.8379 59.9848 43.0659 61.0014C43.6975 61.1619 44.3993 61.6077 44.8028 62.0001C45.5397 62.0001 46.6977 60.9122 46.8205 60.1453C47.3819 60.3415 47.9609 60.716 48.2942 61.0549C49.0837 61.0549 50.1539 59.8778 50.1539 59.0753C50.1539 58.2906 49.3293 57.8448 48.5398 57.5416Z" fill="#043E7D"/>
<path d="M36.5042 51.6207C35.8902 52.2984 35.1884 52.5124 34.5217 52.5303C32.662 52.5481 32.2584 50.9252 32.2584 49.2488C31.4514 50.5329 31.0479 51.1927 31.0479 51.1927C31.0479 53.1901 31.3987 55.7225 33.662 55.7225C35.5393 55.7225 36.013 53.208 37.0481 53.208C37.2236 53.208 37.4341 53.2971 37.6271 53.2971C38.8201 53.2971 39.4517 52.2271 40.1535 51.1571C41.5571 51.1571 41.9255 48.4463 41.9255 47.3763C41.7852 47.3941 41.6273 47.6081 41.5746 47.8578C41.4869 48.4641 41.2764 49.1597 40.8027 49.1597C40.6097 49.1597 40.4693 49.1062 40.364 48.9992C40.2588 48.9992 40.2061 49.1775 40.1184 49.3915C39.8903 49.8909 39.2763 50.9431 38.7499 50.9431C38.5043 50.8896 38.1534 50.7826 37.9253 50.7826C37.3464 50.7826 36.8902 51.1927 36.5042 51.6207Z" fill="#043E7D"/>
<path d="M31.0479 51.1927C31.7496 51.0501 32.1532 50.4259 32.2584 49.2488C32.2584 46.7343 32.662 43.8808 32.9602 41.3306C33.0479 40.7421 32.9778 40.4211 32.8199 40.3497C32.5041 41.6159 32.2233 42.3828 31.8198 43.3458C31.7145 43.5777 31.6619 43.8987 31.6093 44.291C31.3461 46.5738 31.0479 48.8743 31.0479 51.1927Z" fill="#043E7D"/>
<path d="M22.2052 50.1762C21.8192 50.408 21.7315 50.7469 21.9245 51.1571C21.9947 51.1214 22.0999 51.1392 22.1526 51.1927C22.5386 51.6564 22.9421 51.8347 23.3632 51.8169C24.6439 51.7991 26.3633 49.6768 27.3107 48.8208C28.2406 47.9648 29.2581 47.1623 30.0827 46.9304C30.0827 46.9304 30.2231 46.6451 30.4863 46.0387C30.574 45.8604 30.4863 45.7891 30.2582 45.8426C28.802 46.1101 27.8897 45.4502 26.6265 44.9152C25.1001 44.2732 23.9246 45.9317 23.1526 47.0731C23.2403 47.1088 23.3281 47.0731 23.4333 46.9483C24.7316 45.3967 25.9948 46.8234 27.2931 47.3049C25.9422 48.8387 24.293 50.1762 22.2052 50.1762Z" fill="#043E7D"/>
<path d="M25.0125 37.8708C24.3809 38.6734 23.8896 39.3154 23.1177 40.3319C23.9774 40.5459 24.8897 41.2771 25.223 41.7051C25.802 41.3128 26.6792 40.3141 26.6792 39.5294C26.6792 38.7269 25.8897 38.2097 25.0125 37.8708Z" fill="#043E7D"/>
<path d="M21.9244 51.1571C22.0297 50.8896 22.1349 50.5329 22.2051 50.1762C22.2578 49.98 22.3104 49.7303 22.3455 49.4093C22.3104 49.4093 22.3104 49.4093 22.2753 49.445C22.1525 49.5698 22.0297 49.659 21.8893 49.766C19.1173 51.7456 12.8187 52.6194 8.18697 52.6194C6.4325 52.6194 1.29193 52.5659 1.37965 50.1049C1.3972 49.8374 1.34456 49.7125 1.22175 49.6768C0.818223 51.5672 0.221705 54.3137 2.44987 55.1518C3.48501 55.5442 5.02893 55.7225 6.76585 55.7225C11.4152 55.7225 17.5383 54.5277 20.2226 52.9761C20.977 52.5481 21.5911 51.9774 21.9244 51.1571Z" fill="#043E7D"/>
<path d="M13.3455 43.1675C12.7665 43.8808 12.2577 44.5407 11.591 45.3967C11.3981 44.7369 10.398 44.3267 9.83658 44.0948C9.18743 44.9152 8.64355 45.6107 7.87158 46.6273C8.50319 46.7878 9.20497 47.2336 9.6085 47.626C10.3454 47.626 11.5033 46.5381 11.6261 45.7712C12.1876 45.9674 12.7665 46.3419 13.0999 46.6808C13.8894 46.6808 14.9596 45.5037 14.9596 44.7012C14.9596 43.9165 14.135 43.4707 13.3455 43.1675Z" fill="#043E7D"/>
<path d="M148.344 24.3284C148.778 24.1248 149.949 23.5004 150.788 23.4733C150.933 23.4733 151.178 23.4326 151.381 23.2697C152.277 22.5639 152.885 20.7451 152.986 19.6321C153.044 18.8992 152.827 17.5147 151.815 17.4468C151.424 17.4197 151.034 17.6233 150.817 17.9626C150.354 18.8992 150.34 18.9263 149.776 19.89C149.573 20.2429 149.79 20.7315 150.137 21.003C150.614 21.3966 151.453 21.3287 152.003 21.1116C151.771 21.9802 150.007 22.9439 149.241 23.4054C148.923 23.6226 148.402 23.9348 148.344 24.3284Z" fill="#043E7D"/>
<path d="M147.925 20.7179C148.171 19.9579 148.388 19.0756 148.605 18.1255C148.633 17.9626 148.677 17.7997 148.778 17.6504C148.503 17.6504 148.373 18.0983 148.315 18.3155C148.214 18.6548 148.113 19.0077 147.983 19.3335C147.26 21.3016 145.814 22.6996 143.948 23.8126C143.746 23.9348 143.442 24.1248 143.442 24.3419C143.934 24.2062 144.903 23.799 145.351 23.799C146.913 23.799 147.535 21.8852 147.925 20.7179Z" fill="#043E7D"/>
<path d="M148.735 12.3298C148.214 12.9406 147.809 13.4292 147.173 14.2029C147.881 14.3658 148.633 14.9223 148.908 15.248C149.385 14.9494 150.108 14.1893 150.108 13.5921C150.108 12.9813 149.458 12.5877 148.735 12.3298Z" fill="#043E7D"/>
<path d="M144.483 13.1442C144.281 13.4971 144.021 13.9178 143.746 14.4201C143.312 15.2616 143.095 16.0352 143.095 17.0532C143.11 18.5734 143.095 22.1974 142.416 23.514C143.543 22.9439 144.064 20.4058 144.165 19.3199C144.339 17.569 144.252 14.7051 144.859 13.1442C145.018 12.737 145.033 12.4791 144.917 12.3841C144.772 12.6284 144.628 12.8863 144.483 13.1442Z" fill="#043E7D"/>
<path d="M140.969 20.7179C141.215 19.9579 141.432 19.0756 141.649 18.1255C141.678 17.9626 141.721 17.7997 141.823 17.6504C141.548 17.6504 141.418 18.0983 141.36 18.3155C141.259 18.6548 141.157 19.0077 141.027 19.3335C140.304 21.3016 138.858 22.6996 136.993 23.8126C136.79 23.9348 136.487 24.1248 136.487 24.3419C136.978 24.2062 137.947 23.799 138.396 23.799C139.957 23.799 140.579 21.8852 140.969 20.7179Z" fill="#043E7D"/>
<path d="M137.89 20.2565C138.324 19.6321 138.671 18.5463 138.743 17.7862C138.656 17.7997 138.57 17.9083 138.483 18.1391C138.063 19.1978 136.198 19.8628 135.085 20.1886C132.612 20.8944 129.113 21.288 126.264 21.288C125.368 21.288 124.543 21.2473 123.82 21.1659C122.75 21.0437 120.639 20.6908 120.697 19.3606C120.712 19.157 120.668 19.062 120.552 19.0349C120.408 19.6592 120.234 20.4058 120.234 21.098C120.234 21.3966 120.278 21.6952 120.35 21.9531C120.856 23.6769 123.661 23.6497 125.194 23.6497C128.158 23.6361 136.126 22.8082 137.89 20.2565Z" fill="#043E7D"/>
<path d="M131.209 14.3929C130.732 14.9358 130.313 15.438 129.763 16.0895C129.604 15.5873 128.78 15.2752 128.317 15.0987C127.782 15.7231 127.334 16.2524 126.698 17.0261C127.218 17.1482 127.797 17.4876 128.129 17.7862C128.737 17.7862 129.691 16.9582 129.792 16.3746C130.255 16.5239 130.732 16.8089 131.007 17.0668C131.658 17.0668 132.54 16.171 132.54 15.5602C132.54 14.963 131.86 14.6236 131.209 14.3929Z" fill="#043E7D"/>
<path d="M117.978 11.9498C117.776 12.3027 117.516 12.7234 117.241 13.2256C116.807 14.0672 116.59 14.8408 116.59 15.8588C116.605 17.379 116.59 21.003 115.911 22.3196C117.039 21.7495 117.559 19.2113 117.66 18.1255C117.834 16.3746 117.747 13.5107 118.354 11.9498C118.513 11.5426 118.528 11.2847 118.412 11.1897C118.268 11.434 118.123 11.6919 117.978 11.9498Z" fill="#043E7D"/>
<path d="M114.768 20.7179C115.014 19.9579 115.231 19.0756 115.448 18.1255C115.477 17.9626 115.52 17.7997 115.621 17.6504C115.347 17.6504 115.216 18.0983 115.159 18.3155C115.057 18.6548 114.956 19.0077 114.826 19.3335C114.103 21.3016 112.657 22.6996 110.792 23.8126C110.589 23.9348 110.286 24.1248 110.286 24.3419C110.777 24.2062 111.746 23.799 112.194 23.799C113.756 23.799 114.378 21.8852 114.768 20.7179Z" fill="#043E7D"/>
<path d="M112.802 11.624C112.324 12.1669 111.905 12.6691 111.356 13.3206C111.196 12.8184 110.372 12.5062 109.91 12.3298C109.375 12.9542 108.926 13.4835 108.29 14.2572C108.811 14.3793 109.389 14.7187 109.722 15.0173C110.329 15.0173 111.283 14.1893 111.384 13.6057C111.847 13.755 112.324 14.04 112.599 14.2979C113.25 14.2979 114.132 13.4021 114.132 12.7913C114.132 12.1941 113.452 11.8547 112.802 11.624Z" fill="#043E7D"/>
<path d="M108.97 22.0888C109.187 21.7902 109.534 21.383 110.083 21.3694C110.257 21.3694 110.358 21.4373 110.517 21.4373C111.847 21.4373 112.484 19.2521 112.484 18.3291C112.064 18.3291 112.108 19.6457 111.399 19.6457C111.124 19.6457 110.951 19.5778 110.705 19.5778C109.982 19.5778 109.548 20.365 109.085 20.7451C108.695 21.0708 108.117 21.2744 107.538 21.2744C106.005 21.288 105.514 19.9714 105.514 18.7227C104.964 18.5463 104.632 19.0485 104.516 20.2022C104.516 22.686 105.514 23.6497 106.671 23.6497C107.726 23.6497 108.435 22.8353 108.97 22.0888Z" fill="#043E7D"/>
<path d="M106.931 25.0885C106.41 25.6993 106.005 26.1879 105.369 26.9616C106.078 27.1244 106.83 27.6809 107.104 28.0067C107.582 27.7081 108.305 26.948 108.305 26.3508C108.305 25.74 107.654 25.3464 106.931 25.0885Z" fill="#043E7D"/>
<path d="M104.516 20.2022C105.095 20.0936 105.427 19.6185 105.514 18.7227C105.514 16.8089 105.846 14.6372 106.092 12.6963C106.165 12.2484 106.107 12.004 105.977 11.9498C105.716 12.9134 105.485 13.4971 105.152 14.23C105.066 14.4065 105.022 14.6508 104.979 14.9494C104.762 16.6867 104.516 18.4377 104.516 20.2022Z" fill="#043E7D"/>
<path d="M101.581 22.0481C102.521 21.1387 103.504 19.6592 103.504 18.3427C103.504 17.8269 103.331 17.3383 102.666 17.3383C101.581 17.3383 100.424 18.7634 99.817 19.5371C100.121 18.7227 100.28 17.7997 100.338 17.2568C100.482 15.6959 100.41 13.4292 100.959 12.0583C101.089 11.7054 101.104 11.4611 101.017 11.3797C100.656 11.9633 100.294 12.5877 99.976 13.1849C99.5711 13.9314 99.3832 14.6236 99.3832 15.5195C99.3832 16.7139 99.6145 19.6321 99.0217 20.5686C98.8626 20.813 98.6746 21.0573 98.5156 21.3016C97.0551 21.003 96.925 19.8085 96.925 18.7227L95.9272 20.2022C95.9272 21.7088 96.202 23.6497 98.0962 23.6497C99.5133 23.6497 100.67 22.9303 101.581 22.0481ZM98.8337 21.3423C99.9471 19.795 100.728 18.8584 101.682 18.8584C102.203 18.8584 102.564 19.0892 102.781 19.4285C102.044 20.7994 100.251 21.573 98.8337 21.3423Z" fill="#043E7D"/>
<path d="M95.9272 20.2022C96.5056 20.0936 96.8382 19.6185 96.925 18.7227C96.925 16.8089 97.2576 14.6372 97.5034 12.6963C97.5757 12.2484 97.5178 12.004 97.3877 11.9498C97.1274 12.9134 96.8961 13.4971 96.5635 14.23C96.4767 14.4065 96.4333 14.6508 96.39 14.9494C96.1731 16.6867 95.9272 18.4377 95.9272 20.2022Z" fill="#043E7D"/>
<path d="M94.1917 20.2565C94.6255 19.6321 94.9725 18.5463 95.0448 17.7862C94.9581 17.7997 94.8713 17.9083 94.7845 18.1391C94.3652 19.1978 92.4999 19.8628 91.3865 20.1886C88.9138 20.8944 85.4145 21.288 82.5659 21.288C81.6694 21.288 80.8452 21.2473 80.1222 21.1659C79.0522 21.0437 76.941 20.6908 76.9988 19.3606C77.0133 19.157 76.9699 19.062 76.8543 19.0349C76.7097 19.6592 76.5361 20.4058 76.5361 21.098C76.5361 21.3966 76.5795 21.6952 76.6518 21.9531C77.1579 23.6769 79.9631 23.6497 81.4959 23.6497C84.4602 23.6361 92.4276 22.8082 94.1917 20.2565Z" fill="#043E7D"/>
<path d="M87.2219 13.7142C86.7448 14.2572 86.3254 14.7594 85.7759 15.4109C85.6169 14.9087 84.7927 14.5965 84.33 14.42C83.7949 15.0444 83.3467 15.5738 82.7104 16.3474C83.231 16.4696 83.8094 16.8089 84.142 17.1075C84.7493 17.1075 85.7036 16.2796 85.8049 15.6959C86.2676 15.8452 86.7448 16.1303 87.0195 16.3881C87.6702 16.3881 88.5523 15.4923 88.5523 14.8815C88.5523 14.2843 87.8726 13.945 87.2219 13.7142Z" fill="#043E7D"/>
<path d="M70.8682 20.1072C71.302 19.9036 72.4732 19.2792 73.3119 19.2521C73.4565 19.2521 73.7023 19.2113 73.9047 19.0485C74.8013 18.3427 75.4086 16.5239 75.5098 15.4109C75.5676 14.6779 75.3507 13.2935 74.3385 13.2256C73.9481 13.1985 73.5577 13.4021 73.3408 13.7414C72.8781 14.6779 72.8636 14.7051 72.2997 15.6688C72.0973 16.0217 72.3142 16.5103 72.6612 16.7818C73.1384 17.1754 73.977 17.1075 74.5265 16.8903C74.2952 17.759 72.5311 18.7227 71.7647 19.1842C71.4466 19.4014 70.926 19.7135 70.8682 20.1072Z" fill="#043E7D"/>
<path d="M66.9783 15.438C66.6168 15.438 66.3421 15.5873 66.1686 15.9402C65.6335 17.0939 65.7781 16.7818 65.1419 17.7726C64.5201 18.8449 65.9083 19.5507 66.9205 19.0213C67.2386 19.0892 67.4989 19.3199 67.5133 19.6864C67.253 20.2293 66.3999 20.365 65.8938 20.08C65.4745 20.6094 65.4022 21.193 66.1396 21.8717C66.4577 21.8717 66.7614 21.6952 67.0361 21.4237C67.9327 20.5279 68.4966 18.9399 68.4966 17.7319C68.4966 16.8632 68.164 15.438 66.9783 15.438Z" fill="#043E7D"/>
<path d="M67.5709 8.36647C67.0504 8.97726 66.6455 9.46589 66.0093 10.2396C66.7178 10.4024 67.4697 10.9589 67.7445 11.2847C68.2216 10.9861 68.9446 10.226 68.9446 9.62876C68.9446 9.01798 68.2939 8.62436 67.5709 8.36647Z" fill="#043E7D"/>
<path d="M66.1396 21.8716C66.5733 21.1659 66.342 20.3243 65.8937 20.08C65.3298 20.08 65.1274 20.4601 64.7514 20.7587C64.3031 21.098 63.8115 21.2066 63.3777 21.2201C61.5124 21.2201 61.5124 19.3199 61.5124 18.7227C61.1798 19.2113 60.8472 19.7 60.5146 20.2022C60.5146 21.478 60.6882 23.6361 62.4957 23.6361C63.45 23.6361 63.9995 22.9032 64.549 22.1838C64.7659 21.9124 65.0117 21.7495 65.3009 21.7495C65.619 21.7495 65.7781 21.8716 66.1396 21.8716Z" fill="#043E7D"/>
<path d="M63.9562 9.34373C63.4356 9.95452 63.0308 10.4432 62.3945 11.2168C63.1031 11.3797 63.855 11.9362 64.1297 12.2619C64.6069 11.9633 65.3299 11.2032 65.3299 10.606C65.3299 9.99524 64.6792 9.60162 63.9562 9.34373Z" fill="#043E7D"/>
<path d="M60.5146 20.2022C61.093 20.0936 61.4256 19.6185 61.5124 18.7227C61.5124 16.8089 61.845 14.6372 62.0908 12.6963C62.1631 12.2484 62.1052 12.004 61.9751 11.9498C61.7148 12.9134 61.4835 13.4971 61.1509 14.23C61.0641 14.4065 61.0207 14.6508 60.9774 14.9494C60.7605 16.6867 60.5146 18.4377 60.5146 20.2022Z" fill="#043E7D"/>
<path d="M54.4126 24.3284C54.8464 24.1248 56.0176 23.5004 56.8563 23.4733C57.0009 23.4733 57.2467 23.4326 57.4492 23.2697C58.3457 22.5639 58.953 20.7451 59.0542 19.6321C59.1121 18.8992 58.8952 17.5147 57.883 17.4468C57.4926 17.4197 57.1021 17.6233 56.8852 17.9626C56.4225 18.8992 56.4081 18.9263 55.8441 19.89C55.6417 20.2429 55.8586 20.7315 56.2056 21.003C56.6828 21.3966 57.5215 21.3287 58.071 21.1116C57.8396 21.9802 56.0755 22.9439 55.3091 23.4054C54.991 23.6226 54.4704 23.9348 54.4126 24.3284Z" fill="#043E7D"/>
<path d="M54.1232 20.7179C54.369 19.9579 54.5859 19.0756 54.8028 18.1255C54.8317 17.9626 54.8751 17.7997 54.9763 17.6504C54.7016 17.6504 54.5715 18.0983 54.5136 18.3155C54.4124 18.6548 54.3112 19.0077 54.181 19.3335C53.458 21.3016 52.012 22.6996 50.1467 23.8126C49.9443 23.9348 49.6406 24.1248 49.6406 24.3419C50.1323 24.2062 51.1011 23.799 51.5493 23.799C53.111 23.799 53.7328 21.8852 54.1232 20.7179Z" fill="#043E7D"/>
<path d="M43.3795 28.4546C46.4595 28.4546 49.5683 24.3555 49.5683 21.5459C49.5683 20.813 49.337 20.4872 48.5417 20.365C47.8476 20.2565 47.3994 19.9986 47.3994 19.5507C47.3994 18.397 50.1178 16.2796 51.4192 16.2796C51.5204 16.2796 51.6361 16.2931 51.7373 16.3067C52.2 16.0488 52.9809 14.7865 52.9953 14.2572C52.9953 14.0536 52.8941 14.0264 52.6772 14.0264C52.4314 14.0264 52.1422 14.1079 51.8241 14.23C49.4671 15.1937 46.3004 18.6413 46.2715 21.193C46.2715 22.0617 46.7197 22.7675 48.079 22.9982C48.4115 23.0661 48.7297 23.2154 48.6284 23.5954C47.7609 25.0206 45.8521 26.0522 44.1025 26.025C42.4107 25.9979 41.4419 24.817 41.4419 23.3918C41.4419 21.5731 42.5697 19.3199 43.6109 17.6233C43.7844 17.3383 44.2616 16.5782 44.0736 16.3067C42.5987 18.6548 40.2417 22.0753 40.2417 25.007C40.2417 26.8122 41.0659 28.4546 43.3795 28.4546Z" fill="#043E7D"/>
<path d="M41.3842 10.1717C41.1817 10.5246 40.9215 10.9454 40.6467 11.4476C40.2129 12.2891 39.996 13.0627 39.996 14.0807C40.0105 15.6009 39.996 19.2249 39.3164 20.5415C40.4443 19.9714 40.9648 17.4333 41.0661 16.3474C41.2396 14.5965 41.1528 11.7326 41.7601 10.1717C41.9192 9.7645 41.9336 9.50661 41.818 9.4116C41.6734 9.65591 41.5288 9.9138 41.3842 10.1717Z" fill="#043E7D"/>
<path d="M36.7861 18.6684C37.726 17.759 38.7093 16.2796 38.7093 14.963C38.7093 14.4472 38.5358 13.9586 37.8706 13.9586C36.7861 13.9586 35.6294 15.3837 35.022 16.1574C35.3257 15.343 35.4848 14.4201 35.5426 13.8771C35.6872 12.3162 35.6149 10.0495 36.1644 8.67865C36.2945 8.32575 36.309 8.08144 36.2222 8C35.8607 8.58364 35.4992 9.208 35.1811 9.80522C34.7762 10.5517 34.5882 11.244 34.5882 12.1398C34.5882 13.3342 34.8196 16.2524 34.2267 17.189C34.0677 17.4333 33.8797 17.6776 33.7206 17.9219C32.2602 17.6233 32.1301 16.4289 32.1301 15.343L31.1323 16.8225C31.1323 18.3291 31.4071 20.27 33.3013 20.27C34.7184 20.27 35.8752 19.5507 36.7861 18.6684ZM34.0388 17.9626C35.1522 16.4153 35.933 15.4787 36.8874 15.4787C37.4079 15.4787 37.7694 15.7095 37.9863 16.0488C37.2489 17.4197 35.4558 18.1934 34.0388 17.9626Z" fill="#043E7D"/>
<path d="M31.1323 16.8225C31.1323 19.0892 30.5684 21.8717 27.6909 22.2653C28.6452 20.6501 28.8332 18.7091 28.9489 16.8903C29.0356 15.3973 29.0645 13.5514 29.4983 12.452C29.6285 12.0855 29.6429 11.8547 29.5562 11.7733C29.4116 11.9905 29.2814 12.2212 29.1513 12.452C28.9778 12.7506 28.7464 13.1306 28.5151 13.5785C28.1102 14.325 27.9222 15.0173 27.9367 15.9131C27.9367 17.5011 27.9222 20.9758 27.1992 22.3467C27.1992 23.229 27.6475 23.6497 28.2259 23.6497C30.0044 23.6497 31.2769 20.6772 31.6095 19.3742C31.7685 18.6548 31.6095 17.8133 31.1323 16.8225C31.7107 16.8361 32.0433 16.3338 32.13 15.343C32.13 13.9857 32.1879 12.3162 32.6795 11.0539C32.8241 10.6875 32.8386 10.4567 32.7374 10.3617C32.6072 10.5925 32.4771 10.8232 32.3325 11.0539C31.1468 13.1442 31.1179 13.9043 31.1323 15.7909C31.1323 16.1031 31.1323 16.4424 31.1323 16.8225Z" fill="#043E7D"/>
<path d="M21.8343 21.1251C20.6486 20.908 20.3884 19.7543 20.3884 18.7227L19.3906 20.2022C19.3906 21.8174 19.7232 23.6497 21.5452 23.6497C23.9889 23.6497 25.8397 20.9351 26.4037 18.9263C26.4326 18.8449 26.4904 18.6005 26.3314 18.6005C26.1 19.062 25.3336 20.27 24.8709 20.4736C24.1479 20.5143 23.1647 20.2022 23.1647 19.4285C23.1647 18.5598 24.0756 18.1662 24.8854 18.1662C25.2324 18.1662 25.9265 18.3291 25.9265 17.8676C25.9265 17.4061 25.3192 17.0939 24.8709 17.0939C23.2659 17.0939 22.138 19.9171 21.8343 21.1251Z" fill="#043E7D"/>
<path d="M19.3906 20.2022C19.969 20.0936 20.3016 19.6185 20.3884 18.7227C20.3884 16.8089 20.7209 14.6372 20.9668 12.6963C21.0391 12.2484 20.9812 12.004 20.8511 11.9498C20.5908 12.9134 20.3594 13.4971 20.0269 14.23C19.9401 14.4065 19.8967 14.6508 19.8533 14.9494C19.6364 16.6867 19.3906 18.4377 19.3906 20.2022Z" fill="#043E7D"/>
<path d="M17.6555 20.2565C18.0893 19.6321 18.4364 18.5463 18.5087 17.7862C18.4219 17.7997 18.3352 17.9083 18.2484 18.1391C17.8291 19.1978 15.9637 19.8628 14.8503 20.1886C12.3777 20.8944 8.87838 21.288 6.02978 21.288C5.13327 21.288 4.30905 21.2473 3.58606 21.1659C2.51602 21.0437 0.404877 20.6908 0.462717 19.3606C0.477177 19.157 0.433797 19.062 0.318118 19.0349C0.173519 19.6592 0 20.4058 0 21.098C0 21.3966 0.0433797 21.6952 0.115679 21.9531C0.621776 23.6769 3.427 23.6497 4.95975 23.6497C7.92403 23.6361 15.8914 22.8082 17.6555 20.2565Z" fill="#043E7D"/>
<path d="M10.6858 13.7142C10.2086 14.2572 9.78929 14.7594 9.23982 15.4109C9.08076 14.9087 8.25654 14.5965 7.79383 14.42C7.25881 15.0444 6.81055 15.5738 6.17432 16.3474C6.69487 16.4696 7.27327 16.8089 7.60585 17.1075C8.21316 17.1075 9.16752 16.2796 9.26874 15.6959C9.73145 15.8452 10.2086 16.1303 10.4834 16.3881C11.1341 16.3881 12.0161 15.4923 12.0161 14.8815C12.0161 14.2843 11.3365 13.945 10.6858 13.7142Z" fill="#043E7D"/>
<path d="M249.5 37C249.5 57.4345 232.935 74 212.5 74C192.065 74 175.5 57.4345 175.5 37C175.5 16.5655 192.065 0 212.5 0C232.935 0 249.5 16.5655 249.5 37Z" fill="#043E7D"/>
<path d="M210.586 16.6863C194.519 25.0408 177.58 37.5962 189.348 55.9293C187.649 48.1676 190.229 38.1607 210.586 27.887V16.6863Z" fill="white"/>
<path d="M215.379 14.2907V25.6133C218.379 24.2727 221.696 22.93 225.361 21.5896V9.63006C224.316 10.1214 223.191 10.6399 222.005 11.1866C219.947 12.1347 217.706 13.1678 215.379 14.2907Z" fill="white"/>
<path d="M210.586 32.7619C197.001 39.5782 183.157 50.7449 194.954 65.1847C193.503 59.8654 193.337 51.1316 210.586 43.1084V32.7619Z" fill="white"/>
<path d="M215.379 41.0777V30.516C219.146 28.8651 222.639 27.5813 225.251 26.69V37.7921C221.549 38.8579 218.274 39.9571 215.379 41.0777Z" fill="white"/>
<path d="M210.586 47.5602C199.804 52.417 190.622 60.0862 199.176 71.7581C197.241 65.4889 200.081 60.4956 210.586 56.7696V47.5602Z" fill="white"/>
<path d="M215.379 55.3V45.6023C218.938 44.278 222.416 43.2346 225.251 42.4308V53.2032C221.526 53.8374 218.246 54.5363 215.379 55.3Z" fill="white"/>
</svg>
